<svg id="Layer_1" data-name="Layer 1" xmlns="http://www.w3.org/2000/svg" xmlns:xlink="http://www.w3.org/1999/xlink" viewBox="0 0 688.73 154.58"><defs><linearGradient id="linear-gradient" x1="35.04" y1="128.88" x2="133.08" y2="30.85" gradientUnits="userSpaceOnUse"><stop offset="0" stop-color="#6059c9"/><stop offset="0.99" stop-color="#8b8efb"/></linearGradient><linearGradient id="linear-gradient-2" x1="-4.97" y1="14.29" x2="94.77" y2="114.03" gradientUnits="userSpaceOnUse"><stop offset="0" stop-color="#6059c9"/><stop offset="0.31" stop-color="#5e57c6"/><stop offset="0.52" stop-color="#5950bd"/><stop offset="0.69" stop-color="#4f45ae"/><stop offset="0.85" stop-color="#423599"/><stop offset="0.99" stop-color="#322380"/></linearGradient></defs><path d="M132.12,29.89C128.47,26.25,121,20,111.19,19.77c-11.81-.29-20.14,8.25-29,17.39-13.4,13.73-23.34,31.68-33,49.12a65.64,65.64,0,0,1-4.65,7.26,51,51,0,0,1-6.82,7.84c-7.23,6-15.76,7.72-21.89,8.24a63.84,63.84,0,0,0,19.07,11.82A61.5,61.5,0,0,0,73.59,124c4.58-1.25,15.4-4.33,24.71-13.66,0,0,16.28-16.29,17.93-52.7,0-.2,0-.41,0-.76.29-5.28.84-15,6.9-21.43A20.88,20.88,0,0,1,132.12,29.89Z" style="fill:url(#linear-gradient)"/><path d="M8.15,1.16a115.29,115.29,0,0,0,16,11.75C38,21.38,45.19,21.64,63,29c18.81,7.77,28.22,11.65,36.1,21.16,3,3.66,11.48,14.18,11.59,29.59a44.49,44.49,0,0,1-7.21,24.33C90.18,124.41,64.79,125.74,60.86,126a58.32,58.32,0,0,1-28.1-5.45,35.65,35.65,0,0,0,19.77,1.24c3.45-.83,9.12-2.35,11.86-7.24,3.12-5.57.68-11.87.2-13.12-.64-1.67-2-4.31-6.2-8.24a57.83,57.83,0,0,0-9.25-6.86c-.89-.56-.93-.56-4.4-2.6-.51-.29-6.61-3.88-11.29-6.7-5.35-3.23-8-4.84-9.72-6a59.14,59.14,0,0,1-11-9.15,46.61,46.61,0,0,1-7-9.87c-4.11-8-4.41-15.46-4.55-20.26A64.77,64.77,0,0,1,8.15,1.16Z" style="fill:url(#linear-gradient-2)"/><path d="M8.15,1.16A63.45,63.45,0,0,0,1.21,31.44c.15,5,.48,12.08,4.27,19.91,5.93,12.21,16.79,18.84,24.26,23.4C31.58,75.87,40.18,81,47.58,85.36l1.56.92a35.66,35.66,0,0,0,2.45-13.65,37,37,0,0,0-3.32-14.21C44.48,50.09,40,48.72,26.1,35.9,12.51,23.39,9.94,18.42,8.71,13.82A30.67,30.67,0,0,1,8.15,1.16Z" style="fill:#8b8efb;fill-opacity:0.7000000000000001"/><path d="M225.54,25A7.83,7.83,0,0,1,230,31a9.13,9.13,0,0,1-2.14,7.54,6.73,6.73,0,0,1-5,3,11.51,11.51,0,0,1-6.13-1.18,37.53,37.53,0,0,0-7.45-2.51,37.07,37.07,0,0,0-8.2-.89,38.15,38.15,0,0,0-14.25,2.51,30,30,0,0,0-10.71,7.16,31.09,31.09,0,0,0-6.72,11,41.33,41.33,0,0,0-2.28,14,43.18,43.18,0,0,0,2.58,15.66A30.5,30.5,0,0,0,177,98.35a28.65,28.65,0,0,0,10.78,6.57,40.9,40.9,0,0,0,13.44,2.15,44,44,0,0,0,8-.74,27.32,27.32,0,0,0,7.67-2.66,10.5,10.5,0,0,1,6.13-1,7.69,7.69,0,0,1,5.1,3.1,8.9,8.9,0,0,1,2.14,7.6,7.8,7.8,0,0,1-4.5,5.69,51.61,51.61,0,0,1-7.91,3.17,58.92,58.92,0,0,1-8.19,1.92,52.18,52.18,0,0,1-8.42.67,59.68,59.68,0,0,1-20.16-3.4,51,51,0,0,1-17-10,46.48,46.48,0,0,1-11.74-16.62Q148,84.77,148,71.62a55,55,0,0,1,3.91-21A48.76,48.76,0,0,1,163,34a51.12,51.12,0,0,1,16.91-10.93,56.67,56.67,0,0,1,21.26-3.91,54.33,54.33,0,0,1,12.7,1.48A51.47,51.47,0,0,1,225.54,25Z" style="fill:#2b2b39"/><path d="M294.94,42.83a8.61,8.61,0,0,1,6.35,2.51,8.76,8.76,0,0,1,2.51,6.5V114.3a8.85,8.85,0,0,1-2.51,6.43,9.1,9.1,0,0,1-12.7,0,8.9,8.9,0,0,1-2.51-6.43v-7.23l3.25,1.33q0,1.92-2.06,4.65a28.31,28.31,0,0,1-5.62,5.39,34.36,34.36,0,0,1-8.34,4.5,28.77,28.77,0,0,1-10.41,1.85,33.73,33.73,0,0,1-18.46-5.25,36.74,36.74,0,0,1-13.07-14.47,45.24,45.24,0,0,1-4.8-21.19,45.63,45.63,0,0,1,4.8-21.34,37.37,37.37,0,0,1,12.92-14.47,32.58,32.58,0,0,1,18-5.24A34.08,34.08,0,0,1,274,44.75a34.76,34.76,0,0,1,9.23,4.87,28,28,0,0,1,6.06,6q2.14,3,2.14,5.1l-5.32,1.92V51.84a8.9,8.9,0,0,1,2.51-6.43A8.49,8.49,0,0,1,294.94,42.83Zm-29.83,65.71a20,20,0,0,0,11.37-3.25,21.83,21.83,0,0,0,7.61-8.86,28.29,28.29,0,0,0,2.73-12.55,28.67,28.67,0,0,0-2.73-12.7,22,22,0,0,0-7.61-8.86,20,20,0,0,0-11.37-3.25,19.81,19.81,0,0,0-11.22,3.25,21.94,21.94,0,0,0-7.6,8.86,28.54,28.54,0,0,0-2.74,12.7,28.16,28.16,0,0,0,2.74,12.55,21.81,21.81,0,0,0,7.6,8.86A19.73,19.73,0,0,0,265.11,108.54Z" style="fill:#2b2b39"/><path d="M351.21,42.83q11.81,0,17.42,5.68A28,28,0,0,1,376,63.21l-2.51-1.33,1.19-2.37a33.91,33.91,0,0,1,5.46-7.31,33.49,33.49,0,0,1,8.93-6.64,25.05,25.05,0,0,1,11.74-2.73q10.64,0,16.18,4.58a23.24,23.24,0,0,1,7.6,12.18,64.36,64.36,0,0,1,2.07,16.91v37.8a8.9,8.9,0,0,1-2.51,6.43,9.1,9.1,0,0,1-12.7,0A8.85,8.85,0,0,1,409,114.3V76.5a30.65,30.65,0,0,0-1.18-8.79,12.08,12.08,0,0,0-4.29-6.28c-2.06-1.57-5-2.36-8.86-2.36a18.56,18.56,0,0,0-9.6,2.36,15.35,15.35,0,0,0-6,6.28,19.08,19.08,0,0,0-2,8.79v37.8a8.9,8.9,0,0,1-2.51,6.43,9.1,9.1,0,0,1-12.7,0,8.85,8.85,0,0,1-2.51-6.43V76.5a30.65,30.65,0,0,0-1.18-8.79,12.08,12.08,0,0,0-4.29-6.28c-2.06-1.57-5-2.36-8.86-2.36a18.56,18.56,0,0,0-9.6,2.36,15.35,15.35,0,0,0-6,6.28,19.08,19.08,0,0,0-2,8.79v37.8a8.9,8.9,0,0,1-2.51,6.43,9.1,9.1,0,0,1-12.7,0,8.85,8.85,0,0,1-2.51-6.43v-61a8.82,8.82,0,0,1,2.51-6.42,9.08,9.08,0,0,1,12.7,0,8.86,8.86,0,0,1,2.51,6.42v6.35l-2.22-.44a33.26,33.26,0,0,1,3.7-5.39,31.48,31.48,0,0,1,5.76-5.39,30.62,30.62,0,0,1,7.53-4.06A25.3,25.3,0,0,1,351.21,42.83Z" style="fill:#2b2b39"/><path d="M473.48,42.83A33.68,33.68,0,0,1,492,48.07a37.17,37.17,0,0,1,13,14.4,45.13,45.13,0,0,1,4.8,21.26,45.57,45.57,0,0,1-4.8,21.34,37.39,37.39,0,0,1-12.85,14.47,32.41,32.41,0,0,1-18.09,5.25A31.49,31.49,0,0,1,463,122.87a35.45,35.45,0,0,1-9.09-4.88,27.68,27.68,0,0,1-6.05-6q-2.14-3-2.14-5.09l4.57-1.92v38.84a8.85,8.85,0,0,1-2.5,6.42,9.17,9.17,0,0,1-12.7.07,8.75,8.75,0,0,1-2.52-6.49V53.31a8.82,8.82,0,0,1,2.52-6.42,9.08,9.08,0,0,1,12.7,0,8.85,8.85,0,0,1,2.5,6.42v7.24l-2.5-1.33c0-1.28.68-2.83,2.06-4.65a30.22,30.22,0,0,1,5.61-5.47,32.12,32.12,0,0,1,8.2-4.5A27.36,27.36,0,0,1,473.48,42.83Zm-2.21,16.24a20.08,20.08,0,0,0-11.38,3.25,22.14,22.14,0,0,0-7.6,8.79,28.17,28.17,0,0,0-2.73,12.62,28.8,28.8,0,0,0,2.73,12.63,21.83,21.83,0,0,0,7.6,8.93,20,20,0,0,0,11.38,3.25,19.62,19.62,0,0,0,11.29-3.25,22,22,0,0,0,7.53-8.93,28.8,28.8,0,0,0,2.74-12.63,28.17,28.17,0,0,0-2.74-12.62,22.3,22.3,0,0,0-7.53-8.79A19.69,19.69,0,0,0,471.27,59.07Z" style="fill:#2b2b39"/><path d="M587.19,83.88a41.57,41.57,0,0,1-5.39,21.34,38.82,38.82,0,0,1-14.47,14.4,42.48,42.48,0,0,1-40.62,0,38.82,38.82,0,0,1-14.47-14.4,41.57,41.57,0,0,1-5.39-21.34,41.59,41.59,0,0,1,5.39-21.34,39.38,39.38,0,0,1,14.47-14.47,42,42,0,0,1,40.62,0A39.38,39.38,0,0,1,581.8,62.54,41.59,41.59,0,0,1,587.19,83.88Zm-17.72,0a26.82,26.82,0,0,0-3-13.07,22.62,22.62,0,0,0-8.12-8.64,22.15,22.15,0,0,0-22.6,0,22.62,22.62,0,0,0-8.12,8.64,26.82,26.82,0,0,0-3,13.07,26.47,26.47,0,0,0,3,12.92,22.62,22.62,0,0,0,8.12,8.64,22.15,22.15,0,0,0,22.6,0,22.62,22.62,0,0,0,8.12-8.64A26.47,26.47,0,0,0,569.47,83.88Z" style="fill:#2b2b39"/><path d="M652.61,42.83A8.63,8.63,0,0,1,659,45.34a8.8,8.8,0,0,1,2.51,6.5V114.3a8.9,8.9,0,0,1-2.51,6.43,9.1,9.1,0,0,1-12.7,0,8.85,8.85,0,0,1-2.51-6.43v-7.23L647,108.4q0,1.92-2.07,4.65a28.51,28.51,0,0,1-5.61,5.39,34.62,34.62,0,0,1-8.35,4.5,28.77,28.77,0,0,1-10.41,1.85,33.75,33.75,0,0,1-18.46-5.25A36.82,36.82,0,0,1,589,105.07a45.24,45.24,0,0,1-4.8-21.19A45.63,45.63,0,0,1,589,62.54,37.32,37.32,0,0,1,602,48.07a32.53,32.53,0,0,1,18-5.24,34.18,34.18,0,0,1,11.67,1.92,34.92,34.92,0,0,1,9.23,4.87,28.14,28.14,0,0,1,6,6q2.15,3,2.14,5.1l-5.31,1.92V51.84a8.85,8.85,0,0,1,2.51-6.43A8.48,8.48,0,0,1,652.61,42.83Zm-29.83,65.71a20,20,0,0,0,11.37-3.25,21.81,21.81,0,0,0,7.6-8.86,28.3,28.3,0,0,0,2.74-12.55,28.68,28.68,0,0,0-2.74-12.7,21.94,21.94,0,0,0-7.6-8.86,20.07,20.07,0,0,0-11.37-3.25,19.82,19.82,0,0,0-11.23,3.25,21.94,21.94,0,0,0-7.6,8.86,28.67,28.67,0,0,0-2.73,12.7A28.29,28.29,0,0,0,604,96.43a21.81,21.81,0,0,0,7.6,8.86A19.74,19.74,0,0,0,622.78,108.54Z" style="fill:#2b2b39"/><path d="M686.57,114.3a8.82,8.82,0,0,1-9,9,8.3,8.3,0,0,1-6.2-2.58,8.85,8.85,0,0,1-2.51-6.43V23a8.83,8.83,0,0,1,9-9,8.2,8.2,0,0,1,6.27,2.59A9,9,0,0,1,686.57,23Z" style="fill:#2b2b39"/></svg>